<?xml version="1.0" standalone="no"?>
<!DOCTYPE svg PUBLIC "-//W3C//DTD SVG 20010904//EN"
 "http://www.w3.org/TR/2001/REC-SVG-20010904/DTD/svg10.dtd">
<svg version="1.0" xmlns="http://www.w3.org/2000/svg"
 width="256.000000pt" height="256.000000pt" viewBox="0 0 256.000000 256.000000"
 preserveAspectRatio="xMidYMid meet">

<g transform="translate(0.000000,256.000000) scale(0.100000,-0.100000)"
fill="#000000" stroke="none">
<path d="M190 2551 c-69 -21 -130 -73 -166 -141 -18 -34 -19 -81 -19 -1130 0
-1049 1 -1096 19 -1130 26 -49 74 -98 121 -123 l40 -22 1095 0 1095 0 40 22
c47 25 95 74 121 123 18 34 19 81 19 1130 l0 1095 -22 40 c-25 47 -74 95 -123
121 -33 18 -83 19 -1115 21 -594 1 -1091 -2 -1105 -6z m473 -354 c145 -61 187
-256 79 -371 -86 -91 -252 -90 -333 2 -43 49 -59 91 -59 157 0 93 43 165 123
204 49 25 140 28 190 8z m1172 -652 c152 -40 266 -149 322 -307 16 -48 18 -90
18 -453 l0 -400 -190 0 -190 0 -5 371 -5 371 -24 35 c-42 61 -85 83 -161 83
-76 0 -119 -22 -161 -83 l-24 -35 -5 -371 -5 -371 -190 0 -190 0 0 575 0 575
190 0 190 0 3 -70 3 -71 49 48 c108 104 236 139 375 103z m-1070 -585 l0 -575
-190 0 -190 0 -3 565 c-1 311 0 571 3 578 3 10 48 12 192 10 l188 -3 0 -575z"/>
</g>
</svg>
