<?xml version="1.0" ?><!-- Uploaded to: SVG Repo, www.svgrepo.com, Generator: SVG Repo Mixer Tools -->
<svg fill="#000000" width="800px" height="800px" viewBox="0 0 24 24" id="Layer_1" version="1.1" xml:space="preserve" xmlns="http://www.w3.org/2000/svg" xmlns:xlink="http://www.w3.org/1999/xlink"><path d="M11.71,11.29c-0.39-0.39-1.02-0.39-1.41,0s-0.39,1.02,0,1.41l1,1C11.48,13.9,11.74,14,12,14c0.02,0,0.05,0,0.07,0  c0.29-0.02,0.56-0.17,0.73-0.4l3-4c0.33-0.44,0.24-1.07-0.2-1.4c-0.44-0.33-1.07-0.24-1.4,0.2l-2.31,3.08L11.71,11.29z"/><path d="M15,12c0,1.65-1.35,3-3,3s-3-1.35-3-3s1.35-3,3-3c0.55,0,1-0.45,1-1s-0.45-1-1-1c-2.76,0-5,2.24-5,5s2.24,5,5,5s5-2.24,5-5  c0-0.55-0.45-1-1-1S15,11.45,15,12z"/><path d="M21.5,11h-1.15c-0.24,0-0.44-0.18-0.48-0.42c-0.21-1.15-0.66-2.22-1.3-3.14c-0.14-0.2-0.12-0.47,0.05-0.64l0.73-0.73  c0.28-0.28,0.28-0.6,0.08-0.79l-0.71-0.71c-0.2-0.2-0.51-0.2-0.71,0L17.2,5.39c-0.17,0.17-0.44,0.19-0.64,0.05  c-0.92-0.64-1.99-1.1-3.14-1.3C13.18,4.09,13,3.89,13,3.65V2.62C13,2.22,12.78,2,12.5,2h-1C11.22,2,11,2.22,11,2.5v1.15  c0,0.24-0.18,0.44-0.42,0.48c-1.15,0.21-2.22,0.66-3.14,1.3C7.24,5.58,6.98,5.56,6.8,5.39L5.99,4.58c-0.2-0.2-0.51-0.2-0.71,0  L4.58,5.28c-0.2,0.2-0.2,0.51,0,0.71L5.39,6.8c0.17,0.17,0.19,0.44,0.05,0.64c-0.64,0.92-1.1,1.99-1.3,3.14  C4.09,10.82,3.89,11,3.65,11H2.5C2.22,11,2,11.22,2,11.5v1C2,12.78,2.22,13,2.5,13h1.15c0.24,0,0.44,0.18,0.48,0.42  c0.21,1.15,0.66,2.22,1.3,3.14c0.14,0.2,0.12,0.47-0.05,0.64l-0.81,0.81c-0.2,0.2-0.2,0.51,0,0.71l0.71,0.71  c0.2,0.2,0.51,0.2,0.71,0l0.81-0.81c0.17-0.17,0.44-0.19,0.64-0.05c0.92,0.64,1.99,1.1,3.14,1.3c0.24,0.04,0.42,0.24,0.42,0.48v1.15  c0,0.28,0.22,0.5,0.5,0.5h1c0.28,0,0.5-0.22,0.5-0.5v-1.15c0-0.24,0.18-0.44,0.42-0.48c1.15-0.21,2.22-0.66,3.14-1.3  c0.2-0.14,0.47-0.12,0.64,0.05l0.81,0.81c0.2,0.2,0.51,0.2,0.71,0l0.71-0.71c0.2-0.2,0.2-0.51,0-0.71l-0.81-0.81  c-0.17-0.17-0.19-0.44-0.05-0.64c0.64-0.92,1.1-1.99,1.3-3.14c0.04-0.24,0.24-0.42,0.48-0.42h1.15c0.28,0,0.5-0.22,0.5-0.5v-1  C22,11.22,21.78,11,21.5,11z M17.85,13.37c-0.49,2.2-2.27,3.98-4.47,4.47C9,18.82,5.18,15,6.15,10.63c0.49-2.2,2.27-3.98,4.47-4.47  C15,5.18,18.82,9,17.85,13.37z"/></svg>