<?xml version="1.0" standalone="no"?>
<!DOCTYPE svg PUBLIC "-//W3C//DTD SVG 20010904//EN"
 "http://www.w3.org/TR/2001/REC-SVG-20010904/DTD/svg10.dtd">
<svg version="1.0" xmlns="http://www.w3.org/2000/svg"
 width="512.000000pt" height="512.000000pt" viewBox="0 0 512.000000 512.000000"
 preserveAspectRatio="xMidYMid meet">

<g transform="translate(0.000000,512.000000) scale(0.100000,-0.100000)"
fill="#000000" stroke="none">
<path d="M2370 5113 c-468 -44 -863 -180 -1220 -419 -385 -257 -682 -596 -886
-1009 -126 -258 -203 -511 -246 -810 -17 -118 -17 -512 0 -630 42 -295 120
-553 242 -800 137 -280 272 -468 494 -691 221 -220 412 -357 681 -489 188 -92
309 -137 500 -185 500 -126 1002 -102 1490 71 149 53 407 182 540 271 299 199
573 480 769 788 72 113 188 353 235 486 183 516 199 1062 46 1589 -24 83 -110
313 -121 324 -2 3 -86 -76 -187 -176 -100 -99 -197 -188 -215 -199 -20 -11
-30 -24 -27 -33 21 -54 58 -205 75 -306 151 -878 -304 -1755 -1112 -2145 -552
-267 -1194 -265 -1743 4 -416 204 -735 524 -935 937 -265 550 -265 1188 0
1738 349 722 1089 1169 1885 1138 163 -7 364 -39 500 -81 43 -14 80 -24 80
-23 17 35 108 136 234 262 89 88 161 163 161 166 0 3 -37 21 -82 39 -331 131
-652 192 -988 188 -74 0 -151 -3 -170 -5z"/>
<path d="M4205 5029 c-43 -13 -722 -693 -734 -736 -6 -20 -1 -124 14 -300 l23
-268 -533 -535 c-293 -294 -540 -549 -549 -567 -61 -122 75 -258 197 -197 18
9 273 256 567 549 l535 533 264 -22 c160 -14 279 -20 300 -15 28 6 101 74 383
356 378 377 380 380 358 462 -12 45 -64 96 -107 105 -15 3 -128 15 -251 25
-123 11 -226 21 -229 24 -2 3 -13 104 -24 224 -10 120 -21 233 -24 251 -8 44
-59 99 -103 112 -42 11 -47 11 -87 -1z"/>
<path d="M2370 4260 c-514 -63 -966 -343 -1243 -770 -368 -569 -368 -1290 0
-1860 127 -196 306 -375 503 -502 695 -451 1611 -340 2175 265 427 457 572
1094 384 1685 -17 50 -35 92 -42 92 -7 1 -79 7 -162 15 l-150 13 -120 -119
-119 -118 21 -68 c38 -122 47 -185 47 -333 0 -152 -9 -213 -51 -345 -104 -327
-379 -602 -708 -708 -132 -42 -193 -51 -345 -51 -152 0 -213 9 -345 51 -327
105 -602 379 -708 708 -42 132 -51 193 -51 345 0 152 9 213 51 345 86 268 287
505 536 636 263 137 573 165 850 77 l68 -22 118 119 119 120 -13 150 c-8 83
-14 155 -15 162 0 16 -159 66 -295 93 -126 25 -383 35 -505 20z"/>
<path d="M2445 3363 c-136 -21 -295 -92 -397 -177 -92 -76 -161 -165 -213
-271 -65 -134 -79 -196 -79 -355 0 -159 14 -221 79 -355 79 -163 206 -290 372
-371 399 -196 885 -29 1078 371 63 132 80 205 80 362 0 72 -3 135 -8 139 -4 4
-128 -112 -275 -258 -293 -291 -314 -306 -451 -330 -141 -24 -281 22 -387 127
-105 104 -150 244 -126 386 24 137 39 158 330 451 146 147 263 271 259 274 -8
8 -221 14 -262 7z"/>
</g>
</svg>
