<?xml version="1.0" standalone="no"?>
<!DOCTYPE svg PUBLIC "-//W3C//DTD SVG 20010904//EN"
 "http://www.w3.org/TR/2001/REC-SVG-20010904/DTD/svg10.dtd">
<svg version="1.0" xmlns="http://www.w3.org/2000/svg"
 width="2196.000000pt" height="341.000000pt" viewBox="0 0 2196.000000 341.000000"
 preserveAspectRatio="xMidYMid meet">

<g transform="translate(0.000000,341.000000) scale(0.100000,-0.100000)"
fill="#000000" stroke="none">
<path d="M19120 3384 c-41 -2 -221 -8 -400 -14 -366 -12 -1398 -51 -2870 -110
-547 -22 -1348 -53 -1780 -70 -942 -36 -1004 -39 -970 -52 131 -49 749 -206
1110 -282 738 -155 1232 -213 2165 -257 385 -18 2309 -23 3461 -9 846 11 1111
11 1263 1 105 -7 201 -15 212 -20 19 -7 18 -10 -18 -42 -287 -259 -977 -542
-2308 -947 l-129 -39 84 -26 c407 -122 1080 -277 1443 -332 l109 -17 76 28
c281 101 836 374 1060 521 185 122 285 237 318 364 28 108 8 192 -89 387 -114
226 -266 451 -374 553 -185 173 -519 289 -996 345 -102 12 -264 16 -712 18
-319 2 -614 2 -655 0z"/>
<path d="M4795 1540 c-27 -5 -330 -9 -673 -9 l-623 -1 -49 -106 c-28 -58 -50
-107 -50 -108 0 -2 26 6 58 17 49 18 89 21 280 25 l222 4 0 -610 c0 -407 -4
-620 -11 -639 -5 -15 -22 -40 -37 -55 l-26 -28 224 0 223 0 -21 22 c-11 13
-25 36 -31 51 -7 19 -11 232 -11 644 l0 615 198 -4 c222 -3 225 -2 309 75 41
38 94 119 76 116 -5 -1 -30 -5 -58 -9z"/>
<path d="M5955 1536 c-162 -32 -273 -104 -326 -214 -31 -63 -33 -212 -5 -287
47 -123 122 -198 352 -351 189 -125 246 -175 275 -237 33 -74 20 -162 -33
-223 -40 -46 -74 -62 -148 -72 -173 -24 -331 52 -438 212 -60 90 -62 88 -62
-101 0 -148 1 -151 77 -185 139 -61 406 -87 559 -53 216 47 345 170 376 358
31 187 -69 343 -326 507 -171 109 -275 189 -310 238 -28 40 -31 51 -31 119 0
74 0 74 41 113 51 48 107 64 200 58 114 -8 235 -78 296 -173 l20 -30 -6 79
c-3 43 -6 105 -6 136 0 53 -2 58 -27 69 -105 42 -354 61 -478 37z"/>
<path d="M15237 1535 c-48 -8 -93 -17 -99 -21 -6 -4 10 -14 37 -22 38 -11 65
-29 120 -85 57 -58 108 -131 253 -363 l182 -292 0 -306 c0 -321 -3 -350 -47
-398 -15 -17 -7 -18 195 -18 117 0 212 2 212 5 0 2 -11 21 -25 41 l-25 37 0
321 0 321 188 330 c150 265 198 341 244 388 l56 57 -151 0 c-117 0 -148 -3
-139 -12 7 -7 12 -23 12 -37 0 -22 -271 -514 -290 -526 -4 -2 -74 102 -156
233 -164 261 -195 301 -258 331 -57 28 -193 35 -309 16z"/>
<path d="M16905 1536 c-166 -32 -269 -101 -324 -216 -22 -47 -26 -68 -26 -151
0 -90 2 -99 37 -170 53 -107 130 -180 336 -315 95 -63 191 -133 213 -155 99
-99 105 -226 15 -315 -48 -49 -99 -66 -197 -66 -163 0 -307 90 -401 250 -34
58 -38 44 -38 -128 0 -156 1 -158 77 -192 89 -39 195 -60 339 -65 162 -6 256
9 360 58 214 101 301 347 197 554 -37 73 -152 179 -287 265 -170 109 -275 189
-310 238 -28 40 -31 51 -31 119 0 74 0 74 41 113 51 48 107 64 200 58 114 -8
215 -65 286 -163 l29 -40 -7 130 c-4 83 -11 135 -19 144 -41 43 -355 73 -490
47z"/>
<path d="M45 1500 l30 -31 3 -667 c1 -367 0 -677 -3 -689 -3 -12 -17 -36 -32
-53 l-26 -32 384 5 c433 5 476 10 616 77 132 63 201 147 225 279 37 198 -91
370 -310 416 -76 16 -82 20 -45 30 74 18 170 104 206 183 27 64 21 205 -13
277 -48 99 -146 172 -285 211 -50 15 -119 18 -420 22 l-360 3 30 -31z m606
-124 c98 -35 148 -116 149 -237 0 -173 -94 -252 -317 -266 l-93 -6 0 261 c0
199 3 262 13 266 24 11 203 -2 248 -18z m62 -666 c79 -25 124 -62 154 -127 23
-49 25 -65 21 -146 -6 -135 -46 -200 -153 -249 -43 -19 -66 -22 -160 -22 -60
0 -127 3 -147 8 l-38 7 0 274 0 274 33 4 c60 9 232 -5 290 -23z"/>
<path d="M1397 1508 c12 -12 26 -36 32 -51 7 -19 11 -242 11 -677 0 -435 -4
-658 -11 -677 -6 -15 -20 -38 -31 -51 l-21 -22 218 0 c209 0 217 1 202 18 -43
48 -47 77 -47 393 l0 301 37 -7 c100 -19 172 -86 264 -248 79 -140 184 -296
243 -364 73 -82 112 -95 269 -95 132 0 262 16 273 33 3 5 -4 9 -16 9 -82 0
-226 133 -383 355 -180 255 -262 339 -352 361 -27 7 -22 9 39 21 191 35 304
153 314 328 10 183 -90 301 -310 366 -67 20 -100 23 -413 26 l-340 5 22 -24z
m585 -138 c90 -42 128 -108 128 -226 0 -79 -23 -144 -67 -189 -52 -53 -111
-76 -210 -83 l-83 -5 0 261 c0 199 3 262 13 266 29 14 173 -2 219 -24z"/>
<path d="M2924 1500 c14 -17 28 -45 31 -63 3 -18 5 -325 3 -683 l-3 -651 -28
-36 -28 -37 222 0 223 0 -26 28 c-15 15 -32 40 -37 55 -7 19 -11 240 -11 668
0 686 0 680 51 728 l23 21 -223 0 -223 0 26 -30z"/>
<path d="M4939 1509 c51 -48 51 -42 51 -728 0 -428 -4 -649 -11 -668 -5 -15
-22 -40 -37 -55 l-26 -28 222 0 c198 0 253 6 209 23 -8 3 -21 21 -30 40 -15
32 -17 101 -17 686 0 700 0 699 51 735 22 15 9 16 -206 16 l-229 0 23 -21z"/>
<path d="M6797 1488 l28 -42 3 -630 c4 -658 1 -712 -38 -754 -11 -12 -20 -24
-20 -27 0 -3 95 -5 210 -5 l210 0 -27 42 -28 41 -3 303 -3 302 33 8 c42 10
556 10 586 0 l22 -7 0 -303 0 -303 -25 -37 c-14 -20 -25 -39 -25 -41 0 -3 95
-5 212 -5 208 0 211 0 194 19 -44 49 -45 63 -46 734 0 677 0 677 47 729 15 17
7 18 -202 18 l-218 0 20 -22 c41 -46 43 -58 43 -341 l0 -274 -61 -7 c-80 -8
-438 -8 -518 0 l-61 7 0 251 c0 265 6 312 40 358 l21 28 -211 0 -210 0 27 -42z"/>
<path d="M9250 1510 c44 -44 46 -37 -221 -728 -237 -614 -257 -660 -298 -705
l-44 -47 144 0 c111 0 140 3 131 12 -7 7 -12 20 -12 31 0 10 37 112 81 226
l82 209 45 6 c57 8 425 8 473 0 l36 -6 77 -213 c64 -175 76 -216 67 -233 -6
-11 -11 -23 -11 -26 0 -3 93 -6 208 -6 l207 1 -25 22 c-14 12 -33 32 -44 44
-10 12 -134 338 -275 725 l-256 703 -193 3 c-192 2 -192 2 -172 -18z m257
-562 c56 -156 100 -284 98 -286 -8 -8 -297 -13 -361 -5 l-70 8 109 283 c61
155 113 282 116 282 3 0 52 -127 108 -282z"/>
<path d="M10319 1509 c51 -48 51 -42 51 -728 0 -428 -4 -649 -11 -668 -5 -15
-22 -40 -37 -55 l-26 -28 223 0 222 0 -28 37 -28 36 -3 656 c-2 447 0 668 8
693 6 20 22 46 37 57 l26 21 -229 0 -228 0 23 -21z"/>
<path d="M11022 1513 c48 -53 48 -51 48 -733 0 -680 0 -680 -47 -732 -15 -17
-7 -18 202 -18 l218 0 -21 23 c-39 42 -42 68 -42 383 0 245 3 304 13 304 7 0
36 -7 63 -15 107 -33 175 -108 344 -380 93 -149 198 -272 256 -300 46 -21 247
-24 367 -5 87 14 103 25 51 33 -91 15 -187 109 -364 353 -142 198 -264 324
-337 350 l-51 18 71 21 c119 34 196 99 246 205 37 80 37 192 -1 272 -48 102
-140 170 -285 210 -71 20 -108 22 -413 26 -326 4 -334 3 -318 -15z m597 -150
c73 -37 109 -93 117 -184 17 -181 -87 -295 -278 -307 l-78 -5 0 261 c0 199 3
262 13 266 6 3 48 4 91 2 62 -3 91 -10 135 -33z"/>
<path d="M12190 1501 c19 -16 43 -44 53 -62 9 -19 133 -342 275 -719 l258
-685 66 -3 c57 -2 68 0 77 16 6 10 72 194 147 408 75 214 140 392 144 397 3 4
66 -142 139 -325 174 -440 198 -482 275 -490 l30 -3 231 685 c127 377 237 696
244 710 7 14 29 42 49 63 l36 37 -142 0 c-137 0 -142 -1 -130 -19 16 -26 13
-36 -151 -526 l-144 -429 -192 483 c-106 266 -195 479 -198 474 -3 -5 -81
-225 -173 -489 -92 -263 -170 -482 -174 -487 -5 -6 -274 704 -341 900 -8 26
-8 39 4 63 l15 30 -216 0 -217 0 35 -29z"/>
<path d="M14509 1504 c12 -15 21 -39 21 -53 0 -27 -489 -1296 -517 -1341 -8
-14 -29 -37 -47 -52 l-31 -27 143 -1 c78 0 142 2 142 5 0 3 -5 14 -12 24 -9
15 4 56 73 234 l84 216 60 6 c70 8 481 3 489 -6 13 -13 149 -395 149 -419 1
-14 -3 -33 -7 -42 -8 -17 5 -18 199 -18 l207 0 -44 49 c-41 46 -57 87 -298
750 l-255 701 -188 0 -188 0 20 -26z m250 -555 c56 -155 99 -284 95 -288 -8
-9 -411 -8 -420 1 -7 8 206 568 217 568 3 0 52 -127 108 -281z"/>
</g>
</svg>
