<?xml version="1.0" standalone="no"?>
<!DOCTYPE svg PUBLIC "-//W3C//DTD SVG 20010904//EN"
 "http://www.w3.org/TR/2001/REC-SVG-20010904/DTD/svg10.dtd">
<svg version="1.0" xmlns="http://www.w3.org/2000/svg"
 width="2188.000000pt" height="392.000000pt" viewBox="0 0 2188.000000 392.000000"
 preserveAspectRatio="xMidYMid meet">

<g transform="translate(0.000000,392.000000) scale(0.100000,-0.100000)"
fill="#000000" stroke="none">
<path d="M2102 3900 c3 -8 103 -314 223 -680 119 -366 222 -669 228 -675 7 -7
8 -5 5 5 -3 8 -103 314 -223 680 -120 366 -222 670 -228 675 -7 7 -8 5 -5 -5z"/>
<path d="M1771 3178 c-123 -376 -229 -698 -237 -715 l-13 -33 -753 -2 -752 -3
607 -444 c334 -245 607 -449 607 -453 0 -7 -376 -1186 -445 -1396 -10 -31 -11
-41 -2 -35 7 4 279 200 605 436 327 235 599 430 606 433 7 3 287 -193 622
-435 335 -241 610 -439 611 -438 1 1 -102 326 -229 721 -130 406 -226 721
-221 725 48 32 1173 858 1188 872 19 19 0 19 -732 19 -707 0 -753 1 -761 18
-4 9 -111 331 -237 715 -126 383 -232 697 -235 697 -3 0 -106 -307 -229 -682z"/>
<path d="M21419 3376 c-139 -54 -211 -134 -239 -270 -27 -131 33 -278 143
-351 182 -120 415 -59 509 133 30 60 33 75 33 157 0 78 -4 97 -28 147 -61 124
-163 190 -302 195 -51 2 -93 -2 -116 -11z m206 -73 c65 -22 136 -93 158 -158
40 -117 11 -235 -78 -313 -229 -201 -569 65 -430 337 65 128 208 183 350 134z"/>
<path d="M21365 3218 c-3 -7 -4 -92 -3 -188 l3 -175 38 -3 37 -3 0 80 c0 71 2
81 18 81 36 0 66 -27 101 -90 35 -62 39 -65 79 -68 23 -2 42 1 42 7 0 17 -73
133 -91 144 -16 10 -15 12 11 23 74 32 84 141 17 184 -32 20 -245 28 -252 8z
m183 -59 c35 -12 46 -39 25 -68 -12 -17 -25 -21 -74 -21 l-59 0 0 50 0 50 39
0 c21 0 52 -5 69 -11z"/>
<path d="M9825 3370 c-94 -23 -187 -97 -233 -185 -24 -44 -27 -61 -27 -150 0
-84 4 -107 23 -146 35 -70 84 -122 149 -157 183 -97 407 -30 499 150 39 75 45
190 15 269 -24 63 -85 139 -141 174 -75 47 -199 67 -285 45z"/>
<path d="M15178 3313 c-24 -6 -38 -63 -38 -155 l0 -78 78 -39 c42 -21 86 -48
96 -60 44 -48 46 -96 46 -1056 0 -911 -3 -1004 -36 -1066 -9 -18 -46 -47 -97
-77 l-82 -49 0 -94 c1 -117 8 -147 41 -159 33 -13 954 -13 988 0 39 15 50 46
50 154 l1 100 -62 36 c-129 75 -144 103 -151 285 l-4 130 31 42 c45 62 128
125 160 121 36 -4 92 -100 305 -518 129 -252 177 -338 196 -347 31 -16 634
-18 675 -3 32 12 42 39 51 134 10 114 7 119 -85 151 -44 15 -91 37 -104 49
-26 22 -436 715 -513 867 -24 48 -44 96 -44 107 0 63 395 441 499 478 100 35
110 41 117 79 9 48 -4 155 -22 183 l-14 22 -428 0 c-262 0 -441 -4 -464 -10
-31 -9 -39 -17 -48 -48 -11 -43 -13 -152 -2 -168 4 -6 30 -23 57 -37 65 -32
89 -59 81 -90 -20 -80 -384 -421 -430 -404 -14 6 -16 84 -16 727 0 794 2 767
-61 789 -31 11 -732 15 -771 4z"/>
<path d="M4663 3224 c-12 -19 -17 -49 -17 -117 -1 -103 -6 -98 107 -138 31
-11 70 -32 86 -45 63 -52 61 -26 61 -1025 0 -610 -4 -924 -11 -958 -16 -77
-45 -111 -124 -149 -132 -62 -120 -48 -123 -132 -3 -102 15 -172 48 -181 43
-12 1083 -10 1118 2 38 13 47 44 47 169 l0 85 -35 17 c-19 10 -62 30 -95 45
-64 31 -97 68 -117 137 -19 63 -18 807 1 829 12 15 49 17 347 17 289 0 335 -2
348 -16 14 -13 16 -63 16 -393 0 -507 -2 -515 -168 -592 -56 -27 -85 -46 -91
-62 -10 -28 3 -187 18 -215 7 -14 25 -23 54 -27 23 -3 279 -5 569 -3 465 3
529 5 543 19 19 18 42 180 32 220 -5 21 -23 34 -92 64 -101 45 -137 81 -156
156 -21 80 -21 1841 0 1912 16 57 58 97 127 122 106 39 113 43 120 71 8 33
-12 182 -27 200 -9 12 -109 14 -553 14 -319 0 -547 -4 -556 -10 -11 -7 -16
-36 -18 -119 l-4 -110 68 -34 c132 -66 133 -70 134 -447 0 -218 -3 -299 -12
-308 -9 -9 -101 -12 -355 -12 -338 0 -342 0 -354 21 -8 15 -10 108 -7 313 4
313 8 336 59 383 13 12 47 33 75 47 28 14 57 33 64 41 16 19 8 199 -10 221
-11 12 -94 14 -556 14 l-544 0 -17 -26z"/>
<path d="M8145 2593 c-296 -47 -559 -226 -711 -482 -181 -308 -202 -792 -48
-1120 130 -276 363 -463 681 -543 77 -20 112 -23 293 -22 189 0 213 2 303 27
124 33 254 91 349 153 92 61 238 205 269 264 59 116 -4 253 -128 276 -51 10
-75 -1 -161 -73 -103 -88 -172 -129 -274 -164 -244 -83 -462 -61 -602 62 -83
73 -115 173 -64 200 12 6 134 50 272 96 594 200 854 334 929 477 64 124 -11
335 -183 519 -138 148 -316 251 -530 308 -74 20 -323 34 -395 22z m260 -363
c121 -54 210 -182 236 -339 12 -73 -5 -143 -42 -180 -48 -48 -203 -113 -408
-171 -233 -66 -272 -33 -258 219 20 331 163 517 382 494 28 -3 68 -13 90 -23z"/>
<path d="M12068 2588 c-43 -4 -110 -17 -149 -28 -63 -19 -216 -92 -305 -145
-40 -24 -59 -15 -74 32 -20 66 -32 83 -69 94 -23 6 -155 9 -363 7 -276 -3
-330 -5 -342 -18 -19 -19 -42 -156 -32 -193 4 -18 20 -34 46 -47 60 -31 108
-78 122 -118 8 -26 13 -186 15 -553 4 -531 -3 -703 -31 -757 -11 -21 -44 -48
-99 -80 l-82 -49 1 -104 c0 -118 10 -144 55 -153 17 -3 239 -6 493 -6 351 0
467 3 486 13 35 18 51 75 48 171 l-3 81 -55 32 c-30 17 -70 44 -89 59 -67 56
-66 45 -66 589 0 485 0 491 22 546 43 106 110 168 201 188 99 21 183 -24 219
-118 15 -41 18 -109 22 -656 6 -599 6 -611 28 -664 42 -101 97 -163 190 -210
98 -49 267 -65 391 -36 132 31 271 131 320 229 21 41 22 48 9 78 -16 39 -80
98 -105 98 -9 0 -42 -13 -72 -30 -68 -36 -108 -39 -115 -7 -3 12 -6 312 -8
667 -3 578 -5 651 -20 705 -83 284 -278 411 -589 383z"/>
<path d="M13830 2586 c-201 -42 -367 -132 -511 -275 -215 -215 -324 -529 -305
-886 16 -302 110 -526 299 -714 129 -128 268 -205 465 -259 90 -24 112 -26
307 -26 195 0 217 2 307 26 128 35 238 84 345 153 100 66 226 187 267 258 73
125 -9 282 -147 282 -50 0 -56 -3 -132 -68 -100 -86 -188 -139 -285 -171 -256
-85 -490 -51 -619 90 -54 59 -79 120 -62 152 14 26 36 35 251 106 401 131 690
251 827 344 84 57 140 124 159 190 22 73 5 158 -52 271 -117 233 -379 434
-659 507 -123 32 -348 42 -455 20z m293 -352 c28 -9 69 -36 102 -66 99 -90
150 -213 143 -344 -3 -67 -6 -76 -36 -107 -54 -56 -230 -130 -431 -183 -122
-31 -174 -32 -206 0 -32 32 -39 78 -32 215 19 382 198 570 460 485z"/>
<path d="M18216 2585 c-143 -30 -292 -96 -403 -179 -270 -203 -413 -518 -413
-911 0 -281 64 -490 210 -683 137 -182 311 -294 559 -359 75 -20 130 -26 252
-30 176 -6 305 10 438 54 283 94 561 333 561 483 0 57 -20 99 -68 142 -75 68
-141 63 -231 -17 -125 -111 -248 -176 -395 -206 -215 -44 -392 -9 -505 101
-44 43 -80 109 -81 146 0 11 8 28 19 38 10 9 114 48 232 87 450 148 755 280
874 376 33 27 73 70 90 97 27 45 30 57 30 135 -1 70 -6 98 -27 149 -108 255
-385 480 -686 559 -122 32 -347 41 -456 18z m321 -366 c189 -91 293 -404 172
-516 -62 -57 -411 -181 -534 -190 -65 -5 -72 -3 -92 19 -35 37 -45 115 -33
243 17 187 62 314 142 395 90 94 215 111 345 49z"/>
<path d="M20915 2589 c-38 -4 -99 -14 -135 -24 -64 -16 -221 -88 -311 -141
-25 -15 -53 -25 -61 -21 -9 3 -23 30 -32 60 -9 30 -23 61 -32 68 -14 11 -84
15 -343 17 -179 2 -341 0 -359 -3 -42 -8 -57 -41 -67 -141 -8 -82 -7 -84 81
-135 44 -25 61 -42 78 -78 21 -45 21 -55 21 -656 l0 -610 -25 -49 c-20 -40
-37 -56 -90 -87 -107 -61 -104 -57 -97 -170 7 -115 15 -134 58 -143 41 -8 927
-8 968 0 17 4 36 15 42 26 14 26 28 188 18 215 -4 12 -39 39 -76 61 -78 46
-105 72 -124 122 -18 47 -26 883 -9 980 15 85 43 146 88 193 123 127 303 102
353 -50 9 -28 14 -199 19 -648 6 -678 3 -645 76 -752 42 -61 131 -125 208
-149 28 -9 96 -18 151 -21 171 -9 299 35 412 140 34 32 72 78 83 103 20 39 21
48 9 76 -17 41 -75 98 -100 98 -11 0 -46 -14 -79 -30 -69 -35 -95 -37 -110
-11 -6 13 -10 228 -10 629 0 685 -3 729 -65 860 -95 201 -284 295 -540 271z"/>
<path d="M9497 2543 c-25 -6 -37 -43 -44 -134 -7 -87 -4 -91 92 -152 85 -54
80 -10 80 -722 0 -566 -2 -633 -16 -660 -23 -41 -44 -58 -124 -103 l-70 -38 1
-104 c0 -119 9 -145 55 -154 52 -10 965 -7 993 4 33 12 41 43 41 159 l0 95
-63 35 c-80 46 -118 83 -133 129 -9 27 -14 257 -18 832 l-6 794 -25 13 c-19
10 -113 12 -385 12 -198 -1 -368 -3 -378 -6z"/>
<path d="M3480 1929 c-316 -231 -579 -424 -584 -429 -4 -4 86 -301 204 -667
117 -362 217 -673 222 -691 5 -19 12 -32 15 -29 3 3 -92 309 -211 681 -119
371 -216 681 -216 689 0 7 257 201 570 431 493 362 595 438 578 436 -2 -1
-262 -190 -578 -421z"/>
<path d="M1969 823 c-13 -17 -13 -17 6 -3 11 8 22 16 24 17 2 2 0 3 -6 3 -6 0
-17 -8 -24 -17z"/>
<path d="M1905 779 c-59 -45 -67 -57 -12 -18 42 29 65 50 55 49 -2 0 -21 -14
-43 -31z"/>
<path d="M1345 374 c-443 -321 -542 -394 -495 -369 25 14 990 716 990 721 0 2
-1 4 -2 4 -2 -1 -223 -161 -493 -356z"/>
</g>
</svg>
