<?xml version="1.0" standalone="no"?>
<!DOCTYPE svg PUBLIC "-//W3C//DTD SVG 20010904//EN"
 "http://www.w3.org/TR/2001/REC-SVG-20010904/DTD/svg10.dtd">
<svg version="1.0" xmlns="http://www.w3.org/2000/svg"
 width="1200.000000pt" height="317.000000pt" viewBox="0 0 1200.000000 317.000000"
 preserveAspectRatio="xMidYMid meet">

<g transform="translate(0.000000,317.000000) scale(0.100000,-0.100000)"
fill="#000000" stroke="none">
<path d="M3910 1965 l0 -1205 225 0 225 0 0 1205 0 1205 -225 0 -225 0 0
-1205z"/>
<path d="M9730 3161 c-78 -24 -142 -76 -178 -145 -22 -42 -27 -64 -26 -126 0
-64 4 -83 29 -128 51 -94 137 -145 245 -145 155 -1 268 104 278 257 4 59 0 81
-18 124 -53 123 -208 200 -330 163z"/>
<path d="M11540 2749 c0 -231 -3 -419 -7 -417 -5 2 -46 22 -93 45 -121 60
-220 83 -352 83 -244 0 -441 -77 -610 -238 -124 -118 -195 -239 -241 -407 -32
-117 -31 -346 1 -460 106 -373 411 -618 797 -642 252 -15 493 64 656 214 144
134 230 308 286 580 13 67 16 194 20 871 l4 792 -230 0 -231 0 0 -421z m-269
-746 c230 -114 315 -394 193 -634 -58 -115 -172 -199 -297 -219 -224 -36 -432
112 -493 351 -53 205 80 443 288 519 41 15 74 19 149 17 84 -2 103 -6 160 -34z"/>
<path d="M2705 2460 c-188 -30 -357 -112 -488 -239 -374 -361 -348 -990 54
-1313 347 -278 871 -259 1196 45 35 33 88 96 118 141 100 151 145 304 145 496
0 244 -76 441 -234 607 -117 124 -254 203 -418 243 -96 24 -284 33 -373 20z
m224 -431 c128 -29 239 -120 298 -244 31 -66 37 -89 41 -169 8 -151 -35 -262
-139 -361 -173 -165 -413 -162 -582 6 -69 69 -111 154 -128 257 -50 302 224
577 510 511z"/>
<path d="M5248 2460 c-88 -16 -163 -42 -253 -88 -73 -37 -109 -65 -186 -142
-194 -192 -279 -414 -266 -690 12 -247 100 -446 270 -606 154 -147 346 -224
560 -224 193 0 399 92 497 223 19 25 38 47 43 47 4 0 7 -49 7 -110 l0 -110
225 0 225 0 0 825 0 825 -225 0 -225 0 0 -105 c0 -58 -3 -105 -7 -105 -5 0
-24 22 -43 47 -63 84 -193 166 -313 199 -64 18 -245 26 -309 14z m274 -421
c84 -17 188 -72 250 -132 180 -173 180 -456 1 -636 -220 -219 -588 -172 -718
92 -138 283 1 610 288 672 78 17 113 18 179 4z"/>
<path d="M7495 2463 c-146 -19 -281 -99 -354 -210 l-31 -46 0 101 0 102 -230
0 -230 0 0 -825 0 -825 230 0 230 0 0 458 c0 495 2 512 56 612 57 106 188 192
321 212 38 5 78 12 91 14 22 4 22 5 22 209 l0 205 -37 -1 c-21 -1 -51 -4 -68
-6z"/>
<path d="M8355 2460 c-286 -45 -535 -225 -660 -477 -106 -216 -116 -496 -25
-731 80 -207 264 -392 473 -472 136 -53 198 -64 357 -64 119 0 160 4 230 23
250 67 450 225 559 443 73 146 93 231 94 398 1 149 -14 233 -59 346 -106 266
-333 459 -612 520 -84 19 -278 26 -357 14z m240 -435 c328 -85 441 -513 200
-760 -63 -65 -170 -120 -251 -131 -172 -21 -352 85 -433 255 -31 66 -36 87
-39 169 -5 116 15 198 67 280 103 159 282 232 456 187z"/>
<path d="M690 2444 c-399 -85 -627 -385 -680 -894 -5 -53 -10 -416 -10 -817
l0 -723 230 0 230 0 0 419 0 418 85 -42 c166 -84 340 -111 512 -81 345 60 599
282 699 611 25 83 28 104 28 255 0 151 -3 173 -27 253 -97 318 -333 536 -649
601 -96 20 -327 20 -418 0z m394 -458 c128 -63 220 -189 247 -336 50 -283
-212 -560 -486 -513 -305 52 -455 380 -308 671 34 68 105 142 164 173 80 41
119 49 217 45 83 -3 101 -7 166 -40z"/>
<path d="M9560 1585 l0 -825 235 0 235 0 0 825 0 825 -235 0 -235 0 0 -825z"/>
</g>
</svg>
